<svg xmlns="http://www.w3.org/2000/svg" width="30" height="30" viewBox="0 0 30 30">
  <path id="instagram_icn" d="M922.51,276.628a8.835,8.835,0,0,1-6.339,2.366H903.831a8.836,8.836,0,0,1-6.341-2.366A8.489,8.489,0,0,1,895,270.2V257.792c0-5.188,3.508-8.8,8.831-8.8h12.452a8.725,8.725,0,0,1,6.339,2.481A8.583,8.583,0,0,1,925,257.792V270.2A8.929,8.929,0,0,1,922.51,276.628Zm-1.26-18.285A5.85,5.85,0,0,0,919.8,254.3a5.553,5.553,0,0,0-4.148-1.556H904.246a5.035,5.035,0,0,0-5.5,5.5v11.406a5.715,5.715,0,0,0,1.556,4.147,5.842,5.842,0,0,0,4.043,1.451h11.3a5.658,5.658,0,0,0,4.043-1.451,5.308,5.308,0,0,0,1.556-4.044Zm-3.75.026a1.874,1.874,0,1,1,1.875-1.875A1.85,1.85,0,0,1,917.5,258.369Zm-7.554,13.125a7.5,7.5,0,0,1,0-15,7.5,7.5,0,1,1,0,15ZM910,260.246a3.75,3.75,0,1,0,3.75,3.748A3.751,3.751,0,0,0,910,260.246Z" transform="translate(-895 -248.994)" fill="#fff" fill-rule="evenodd"/>
</svg>
