<svg xmlns="http://www.w3.org/2000/svg" xmlns:xlink="http://www.w3.org/1999/xlink" width="288.628" height="43.372" viewBox="0 0 288.628 43.372">
  <defs>
    <linearGradient id="linear-gradient" x1="1.561" y1="0.387" x2="-0.285" y2="0.144" gradientUnits="objectBoundingBox">
      <stop offset="0" stop-color="#ed3237"/>
      <stop offset="1" stop-color="#c13437"/>
    </linearGradient>
    <linearGradient id="linear-gradient-2" y1="1" x2="0.5" y2="0.04" gradientUnits="objectBoundingBox">
      <stop offset="0" stop-color="#c13437"/>
      <stop offset="1" stop-color="#ed3237"/>
    </linearGradient>
    <linearGradient id="linear-gradient-3" x1="1" x2="0.466" y2="0.96" gradientUnits="objectBoundingBox">
      <stop offset="0" stop-color="#cbccce"/>
      <stop offset="1" stop-color="#e1e1e3"/>
    </linearGradient>
    <linearGradient id="linear-gradient-4" x1="1" y1="0.111" x2="0" y2="0.459" gradientUnits="objectBoundingBox">
      <stop offset="0" stop-color="#dedee0"/>
      <stop offset="1" stop-color="#e1e1e3"/>
    </linearGradient>
    <linearGradient id="linear-gradient-7" x1="1.269" y1="1.426" x2="-0.084" y2="-0.378" xlink:href="#linear-gradient"/>
    <linearGradient id="linear-gradient-8" x1="0" y1="0.798" x2="0.869" y2="0.087" xlink:href="#linear-gradient-2"/>
    <linearGradient id="linear-gradient-9" x1="1" y1="0.229" x2="0.127" y2="0.911" xlink:href="#linear-gradient-3"/>
    <linearGradient id="linear-gradient-10" x1="0.998" y1="1.001" x2="0.01" y2="0" xlink:href="#linear-gradient-4"/>
    <linearGradient id="linear-gradient-13" x1="0.157" y1="1.511" x2="1.405" y2="-0.227" xlink:href="#linear-gradient"/>
    <linearGradient id="linear-gradient-14" x1="0.001" y1="0" x2="0.948" y2="0.743" xlink:href="#linear-gradient-2"/>
    <linearGradient id="linear-gradient-15" x1="0.998" y1="1" x2="0.054" y2="0.245" xlink:href="#linear-gradient-3"/>
    <linearGradient id="linear-gradient-16" x1="0" y1="0.999" x2="1" y2="0" xlink:href="#linear-gradient-4"/>
    <linearGradient id="linear-gradient-19" x1="-0.538" y1="1.01" x2="1.341" y2="0.215" xlink:href="#linear-gradient"/>
    <linearGradient id="linear-gradient-20" x1="0.63" y1="0" x2="0.892" y2="0.912" xlink:href="#linear-gradient-2"/>
    <linearGradient id="linear-gradient-21" x1="0.31" y1="1" x2="0.109" y2="0.084" xlink:href="#linear-gradient-3"/>
    <linearGradient id="linear-gradient-22" x1="0" y1="0.998" x2="1" y2="0.079" xlink:href="#linear-gradient-4"/>
    <linearGradient id="linear-gradient-25" x1="-0.451" y1="-0.112" x2="1.187" y2="1.403" xlink:href="#linear-gradient"/>
    <linearGradient id="linear-gradient-26" x1="1" y1="0.021" x2="0.196" y2="0.937" xlink:href="#linear-gradient-2"/>
    <linearGradient id="linear-gradient-27" x1="0" y1="0.972" x2="0.81" y2="0.065" xlink:href="#linear-gradient-3"/>
    <linearGradient id="linear-gradient-28" x1="0.001" y1="0" x2="1" y2="1" xlink:href="#linear-gradient-4"/>
    <linearGradient id="linear-gradient-31" x1="0.179" y1="-0.561" x2="0.474" y2="1.314" xlink:href="#linear-gradient"/>
    <linearGradient id="linear-gradient-32" x1="1" y1="1" x2="0.062" y2="0.812" xlink:href="#linear-gradient-2"/>
    <linearGradient id="linear-gradient-33" x1="0" x2="0.942" y2="0.25" xlink:href="#linear-gradient-3"/>
    <linearGradient id="linear-gradient-34" x1="0.004" y1="0" x2="0.794" y2="1" xlink:href="#linear-gradient-4"/>
    <linearGradient id="linear-gradient-37" x1="1.305" y1="-0.366" x2="-0.393" y2="1.139" xlink:href="#linear-gradient"/>
    <linearGradient id="linear-gradient-38" x1="0.916" y1="1" x2="0.075" y2="0.16" xlink:href="#linear-gradient-2"/>
    <linearGradient id="linear-gradient-39" x1="0.099" x2="0.923" y2="0.845" xlink:href="#linear-gradient-3"/>
    <linearGradient id="linear-gradient-40" x1="1.001" y1="0.001" y2="1" xlink:href="#linear-gradient-4"/>
  </defs>
  <g id="logo" transform="translate(-128.372 -32)">
    <g id="Layer_x0020_1" transform="translate(128.372 32)">
      <g id="_2143237289664" transform="translate(0 0)">
        <g id="Group_2985" data-name="Group 2985" transform="translate(26.029 12.31)">
          <g id="Group_2982" data-name="Group 2982">
            <g id="Group_2981" data-name="Group 2981">
              <path id="Path_2296" data-name="Path 2296" d="M979.586,473.332a3.79,3.79,0,0,1,.531,2.118,4.48,4.48,0,0,1-3.15,3.885,4.964,4.964,0,0,0,1.922-2.966c.158-.873-.589-2.067-2.5-2.036-2.025.033-3.7,1.616-5.808,1.289a15.862,15.862,0,0,0,3.812-1.155,10.739,10.739,0,0,1,5.194-1.133Z" transform="translate(-967.861 -471.909)" fill-rule="evenodd" fill="url(#linear-gradient)"/>
              <path id="Path_2297" data-name="Path 2297" d="M878.42,428.733c4.792.259,5.6-2.42,9.274-2.242a2.932,2.932,0,0,1,2.24,1.114,11.482,11.482,0,0,0-5.085,1.177,12.721,12.721,0,0,1-4.54,1.187,6.165,6.165,0,0,1-1.89-1.236Z" transform="translate(-878.42 -426.482)" fill="#c13437" fill-rule="evenodd"/>
            </g>
            <path id="Path_2298" data-name="Path 2298" d="M1189.679,473.323a3.787,3.787,0,0,1,.532,2.118,4.48,4.48,0,0,1-3.15,3.885,4.974,4.974,0,0,0,2.43-3.541,3.281,3.281,0,0,0-1.076-2.478A5.869,5.869,0,0,1,1189.679,473.323Z" transform="translate(-1177.953 -471.899)" fill-rule="evenodd" fill="url(#linear-gradient-2)"/>
            <path id="Path_2299" data-name="Path 2299" d="M878.42,428.733c4.792.259,5.6-2.42,9.274-2.242a2.932,2.932,0,0,1,2.24,1.114,6.421,6.421,0,0,0-1.378.04,2.5,2.5,0,0,0-1.416-.4c-2.815.046-3.519,2.269-8.721,1.486Z" transform="translate(-878.42 -426.482)" fill="#ed3237" fill-rule="evenodd"/>
          </g>
          <g id="Group_2983" data-name="Group 2983" transform="translate(5.12 2.789)">
            <path id="Path_2300" data-name="Path 2300" d="M1052.411,526.942a3.791,3.791,0,0,1-.468-2.132,4.478,4.478,0,0,1,3.264-3.789,4.965,4.965,0,0,0-2.009,2.908c-.184.868.527,2.084,2.439,2.109,2.025.027,3.744-1.506,5.844-1.116a15.862,15.862,0,0,0-3.845,1.041A10.743,10.743,0,0,1,1052.411,526.942Z" transform="translate(-1051.933 -521.02)" fill="#e6e6e6" fill-rule="evenodd"/>
            <path id="Path_2301" data-name="Path 2301" d="M1086.5,662.944c-4.782-.4-5.667,2.253-9.337,1.966a2.932,2.932,0,0,1-2.206-1.18,11.478,11.478,0,0,0,5.118-1.026,12.718,12.718,0,0,1,4.573-1.052A6.161,6.161,0,0,1,1086.5,662.944Z" transform="translate(-1074.281 -657.501)" fill="#ed3237" fill-rule="evenodd"/>
            <path id="Path_2302" data-name="Path 2302" d="M1052.411,526.942a3.791,3.791,0,0,1-.468-2.132,4.478,4.478,0,0,1,3.264-3.789,4.973,4.973,0,0,0-2.534,3.467,3.279,3.279,0,0,0,1,2.509A5.864,5.864,0,0,1,1052.411,526.942Z" transform="translate(-1051.933 -521.02)" fill-rule="evenodd" fill="url(#linear-gradient-3)"/>
            <path id="Path_2303" data-name="Path 2303" d="M1086.5,697.856c-4.782-.4-5.667,2.253-9.337,1.966a2.932,2.932,0,0,1-2.206-1.18,6.418,6.418,0,0,0,1.379,0,2.5,2.5,0,0,0,1.4.439c2.815.038,3.585-2.163,8.761-1.226Z" transform="translate(-1074.281 -692.412)" fill-rule="evenodd" fill="url(#linear-gradient-4)"/>
          </g>
          <g id="Group_2984" data-name="Group 2984" transform="translate(5.12 2.789)">
            <path id="Path_2304" data-name="Path 2304" d="M1052.411,526.942a3.791,3.791,0,0,1-.468-2.132,4.478,4.478,0,0,1,3.264-3.789,4.965,4.965,0,0,0-2.009,2.908c-.184.868.527,2.084,2.439,2.109,2.025.027,3.744-1.506,5.844-1.116a15.862,15.862,0,0,0-3.845,1.041A10.743,10.743,0,0,1,1052.411,526.942Z" transform="translate(-1051.933 -521.02)" fill="#e6e6e6" fill-rule="evenodd"/>
            <path id="Path_2305" data-name="Path 2305" d="M1086.5,662.944c-4.782-.4-5.667,2.253-9.337,1.966a2.932,2.932,0,0,1-2.206-1.18,11.478,11.478,0,0,0,5.118-1.026,12.718,12.718,0,0,1,4.573-1.052A6.161,6.161,0,0,1,1086.5,662.944Z" transform="translate(-1074.281 -657.501)" fill="#ed3237" fill-rule="evenodd"/>
            <path id="Path_2306" data-name="Path 2306" d="M1052.411,526.942a3.791,3.791,0,0,1-.468-2.132,4.478,4.478,0,0,1,3.264-3.789,4.973,4.973,0,0,0-2.534,3.467,3.279,3.279,0,0,0,1,2.509A5.864,5.864,0,0,1,1052.411,526.942Z" transform="translate(-1051.933 -521.02)" fill-rule="evenodd" fill="url(#linear-gradient-3)"/>
            <path id="Path_2307" data-name="Path 2307" d="M1086.5,697.856c-4.782-.4-5.667,2.253-9.337,1.966a2.932,2.932,0,0,1-2.206-1.18,6.418,6.418,0,0,0,1.379,0,2.5,2.5,0,0,0,1.4.439c2.815.038,3.585-2.163,8.761-1.226Z" transform="translate(-1074.281 -692.412)" fill-rule="evenodd" fill="url(#linear-gradient-4)"/>
          </g>
        </g>
        <g id="Group_2990" data-name="Group 2990" transform="translate(28.2 20.774)">
          <g id="Group_2987" data-name="Group 2987" transform="translate(1.524)">
            <g id="Group_2986" data-name="Group 2986">
              <path id="Path_2308" data-name="Path 2308" d="M1032.816,836.9a3.791,3.791,0,0,1-1.279,1.769,4.478,4.478,0,0,1-5,.088,4.963,4.963,0,0,0,3.507-.438c.77-.44,1.2-1.781-.05-3.224-1.328-1.529-3.616-1.791-4.724-3.617a15.848,15.848,0,0,0,3.337,2.175A10.741,10.741,0,0,1,1032.816,836.9Z" transform="translate(-1024.633 -828.458)" fill-rule="evenodd" fill="url(#linear-gradient-7)"/>
              <path id="Path_2309" data-name="Path 2309" d="M1003.67,729.07c2.885,3.835,5.454,2.728,7.684,5.657a2.932,2.932,0,0,1,.589,2.432,11.479,11.479,0,0,0-4.172-3.135,12.706,12.706,0,0,1-3.83-2.711,6.145,6.145,0,0,1-.27-2.242Z" transform="translate(-1003.663 -729.07)" fill="#c13437" fill-rule="evenodd"/>
            </g>
            <path id="Path_2310" data-name="Path 2310" d="M1074.47,983.039a3.793,3.793,0,0,1-1.279,1.77,4.479,4.479,0,0,1-5,.088,4.974,4.974,0,0,0,4.274-.418,3.281,3.281,0,0,0,1.205-2.419A5.9,5.9,0,0,1,1074.47,983.039Z" transform="translate(-1066.286 -974.595)" fill-rule="evenodd" fill="url(#linear-gradient-8)"/>
            <path id="Path_2311" data-name="Path 2311" d="M1003.9,729.07c2.885,3.835,5.454,2.728,7.684,5.657a2.933,2.933,0,0,1,.589,2.432,6.43,6.43,0,0,0-.918-1.029,2.5,2.5,0,0,0-.607-1.34C1008.8,732.665,1006.648,733.556,1003.9,729.07Z" transform="translate(-1003.893 -729.07)" fill="#ed3237" fill-rule="evenodd"/>
          </g>
          <g id="Group_2988" data-name="Group 2988" transform="translate(0 5.978)">
            <path id="Path_2312" data-name="Path 2312" d="M958.33,934.149a3.788,3.788,0,0,1,1.331-1.731,4.479,4.479,0,0,1,5,.061,4.965,4.965,0,0,0-3.519.333c-.783.417-1.256,1.744-.046,3.224,1.282,1.568,3.561,1.9,4.614,3.756a15.855,15.855,0,0,0-3.271-2.273,10.741,10.741,0,0,1-4.111-3.371Z" transform="translate(-958.143 -931.685)" fill="#e6e6e6" fill-rule="evenodd"/>
            <path id="Path_2313" data-name="Path 2313" d="M960.108,1035.421c-2.77-3.919-5.371-2.888-7.512-5.883a2.931,2.931,0,0,1-.516-2.448,11.472,11.472,0,0,0,4.078,3.258,12.718,12.718,0,0,1,3.747,2.824A6.167,6.167,0,0,1,960.108,1035.421Z" transform="translate(-951.998 -1024.275)" fill="#ed3237" fill-rule="evenodd"/>
            <path id="Path_2314" data-name="Path 2314" d="M958.33,934.149a3.788,3.788,0,0,1,1.331-1.731,4.479,4.479,0,0,1,5,.061,4.973,4.973,0,0,0-4.284.291,3.279,3.279,0,0,0-1.276,2.382A5.865,5.865,0,0,1,958.33,934.149Z" transform="translate(-958.143 -931.685)" fill-rule="evenodd" fill="url(#linear-gradient-9)"/>
            <path id="Path_2315" data-name="Path 2315" d="M960.108,1035.421c-2.77-3.919-5.371-2.888-7.512-5.883a2.931,2.931,0,0,1-.516-2.448,6.412,6.412,0,0,0,.886,1.055,2.5,2.5,0,0,0,.567,1.357c1.782,2.179,3.962,1.353,6.575,5.918Z" transform="translate(-951.998 -1024.275)" fill-rule="evenodd" fill="url(#linear-gradient-10)"/>
          </g>
          <g id="Group_2989" data-name="Group 2989" transform="translate(0 5.978)">
            <path id="Path_2316" data-name="Path 2316" d="M958.33,934.149a3.788,3.788,0,0,1,1.331-1.731,4.479,4.479,0,0,1,5,.061,4.965,4.965,0,0,0-3.519.333c-.783.417-1.256,1.744-.046,3.224,1.282,1.568,3.561,1.9,4.614,3.756a15.855,15.855,0,0,0-3.271-2.273,10.741,10.741,0,0,1-4.111-3.371Z" transform="translate(-958.143 -931.685)" fill="#e6e6e6" fill-rule="evenodd"/>
            <path id="Path_2317" data-name="Path 2317" d="M960.108,1035.421c-2.77-3.919-5.371-2.888-7.512-5.883a2.931,2.931,0,0,1-.516-2.448,11.472,11.472,0,0,0,4.078,3.258,12.718,12.718,0,0,1,3.747,2.824A6.167,6.167,0,0,1,960.108,1035.421Z" transform="translate(-951.998 -1024.275)" fill="#ed3237" fill-rule="evenodd"/>
            <path id="Path_2318" data-name="Path 2318" d="M958.33,934.149a3.788,3.788,0,0,1,1.331-1.731,4.479,4.479,0,0,1,5,.061,4.973,4.973,0,0,0-4.284.291,3.279,3.279,0,0,0-1.276,2.382A5.865,5.865,0,0,1,958.33,934.149Z" transform="translate(-958.143 -931.685)" fill-rule="evenodd" fill="url(#linear-gradient-9)"/>
            <path id="Path_2319" data-name="Path 2319" d="M960.108,1035.421c-2.77-3.919-5.371-2.888-7.512-5.883a2.931,2.931,0,0,1-.516-2.448,6.412,6.412,0,0,0,.886,1.055,2.5,2.5,0,0,0,.567,1.357c1.782,2.179,3.962,1.353,6.575,5.918Z" transform="translate(-951.998 -1024.275)" fill-rule="evenodd" fill="url(#linear-gradient-10)"/>
          </g>
        </g>
        <g id="Group_2995" data-name="Group 2995" transform="translate(16.136 28.765)">
          <g id="Group_2992" data-name="Group 2992" transform="translate(3.334)">
            <g id="Group_2991" data-name="Group 2991">
              <path id="Path_2320" data-name="Path 2320" d="M618.136,1081.27a3.792,3.792,0,0,1-2.178-.156,4.48,4.48,0,0,1-2.706-4.206,4.963,4.963,0,0,0,2.218,2.752c.78.423,2.148.087,2.715-1.74.6-1.934-.381-4.017.59-5.921a15.891,15.891,0,0,0-.093,3.982,10.745,10.745,0,0,1-.545,5.288Z" transform="translate(-613.247 -1069.873)" fill-rule="evenodd" fill="url(#linear-gradient-13)"/>
              <path id="Path_2321" data-name="Path 2321" d="M793.394,999.92c-1.743,4.472.551,6.073-.766,9.511a2.931,2.931,0,0,1-1.758,1.78,11.481,11.481,0,0,0,.47-5.2,12.711,12.711,0,0,1,.29-4.684,6.164,6.164,0,0,1,1.765-1.41Z" transform="translate(-785.629 -999.92)" fill="#c13437" fill-rule="evenodd"/>
            </g>
            <path id="Path_2322" data-name="Path 2322" d="M618.136,1242.7a3.791,3.791,0,0,1-2.178-.156,4.479,4.479,0,0,1-2.706-4.206,4.972,4.972,0,0,0,2.6,3.414,3.281,3.281,0,0,0,2.691-.248A5.888,5.888,0,0,1,618.136,1242.7Z" transform="translate(-613.247 -1231.305)" fill-rule="evenodd" fill="url(#linear-gradient-14)"/>
            <path id="Path_2323" data-name="Path 2323" d="M793.394,999.92c-1.743,4.472.551,6.073-.766,9.511a2.931,2.931,0,0,1-1.758,1.78,6.428,6.428,0,0,0,.392-1.322,2.5,2.5,0,0,0,.82-1.221c.836-2.688-1.056-4.051,1.313-8.749Z" transform="translate(-785.629 -999.92)" fill="#ed3237" fill-rule="evenodd"/>
          </g>
          <g id="Group_2993" data-name="Group 2993" transform="translate(0 3.229)">
            <path id="Path_2324" data-name="Path 2324" d="M579.094,1109.44a3.791,3.791,0,0,1,2.172.221,4.479,4.479,0,0,1,2.58,4.285,4.963,4.963,0,0,0-2.135-2.817c-.767-.446-2.144-.15-2.766,1.658-.659,1.915.261,4.027-.765,5.9a15.865,15.865,0,0,0,.212-3.978,10.739,10.739,0,0,1,.7-5.269Z" transform="translate(-575.88 -1109.369)" fill="#e6e6e6" fill-rule="evenodd"/>
            <path id="Path_2325" data-name="Path 2325" d="M500.24,1126.2c1.875-4.417-.37-6.087,1.049-9.484a2.931,2.931,0,0,1,1.81-1.727,11.48,11.48,0,0,0-.624,5.182,12.72,12.72,0,0,1-.429,4.673,6.163,6.163,0,0,1-1.806,1.356Z" transform="translate(-500.24 -1114.824)" fill="#ed3237" fill-rule="evenodd"/>
            <path id="Path_2326" data-name="Path 2326" d="M594.486,1109.44a3.79,3.79,0,0,1,2.172.221,4.479,4.479,0,0,1,2.58,4.285,4.972,4.972,0,0,0-2.5-3.49,3.279,3.279,0,0,0-2.7.168,5.864,5.864,0,0,1,.447-1.184Z" transform="translate(-591.272 -1109.369)" fill-rule="evenodd" fill="url(#linear-gradient-15)"/>
            <path id="Path_2327" data-name="Path 2327" d="M500.25,1126.2c1.875-4.417-.37-6.087,1.049-9.484a2.93,2.93,0,0,1,1.81-1.727,6.435,6.435,0,0,0-.431,1.309,2.5,2.5,0,0,0-.856,1.2c-.915,2.662.935,4.081-1.572,8.706Z" transform="translate(-500.25 -1114.824)" fill-rule="evenodd" fill="url(#linear-gradient-16)"/>
          </g>
          <g id="Group_2994" data-name="Group 2994" transform="translate(0 3.229)">
            <path id="Path_2328" data-name="Path 2328" d="M579.094,1109.44a3.791,3.791,0,0,1,2.172.221,4.479,4.479,0,0,1,2.58,4.285,4.963,4.963,0,0,0-2.135-2.817c-.767-.446-2.144-.15-2.766,1.658-.659,1.915.261,4.027-.765,5.9a15.865,15.865,0,0,0,.212-3.978,10.739,10.739,0,0,1,.7-5.269Z" transform="translate(-575.88 -1109.369)" fill="#e6e6e6" fill-rule="evenodd"/>
            <path id="Path_2329" data-name="Path 2329" d="M500.24,1126.2c1.875-4.417-.37-6.087,1.049-9.484a2.931,2.931,0,0,1,1.81-1.727,11.48,11.48,0,0,0-.624,5.182,12.72,12.72,0,0,1-.429,4.673,6.163,6.163,0,0,1-1.806,1.356Z" transform="translate(-500.24 -1114.824)" fill="#ed3237" fill-rule="evenodd"/>
            <path id="Path_2330" data-name="Path 2330" d="M594.486,1109.44a3.79,3.79,0,0,1,2.172.221,4.479,4.479,0,0,1,2.58,4.285,4.972,4.972,0,0,0-2.5-3.49,3.279,3.279,0,0,0-2.7.168,5.864,5.864,0,0,1,.447-1.184Z" transform="translate(-591.272 -1109.369)" fill-rule="evenodd" fill="url(#linear-gradient-15)"/>
            <path id="Path_2331" data-name="Path 2331" d="M500.25,1126.2c1.875-4.417-.37-6.087,1.049-9.484a2.93,2.93,0,0,1,1.81-1.727,6.435,6.435,0,0,0-.431,1.309,2.5,2.5,0,0,0-.856,1.2c-.915,2.662.935,4.081-1.572,8.706Z" transform="translate(-500.25 -1114.824)" fill-rule="evenodd" fill="url(#linear-gradient-16)"/>
          </g>
        </g>
        <g id="Group_3000" data-name="Group 3000" transform="translate(0 25.775)">
          <g id="Group_2997" data-name="Group 2997" transform="translate(6.263 3.14)">
            <g id="Group_2996" data-name="Group 2996">
              <path id="Path_2332" data-name="Path 2332" d="M213.755,1006a3.792,3.792,0,0,1-1.282-1.767,4.479,4.479,0,0,1,1.476-4.779,4.965,4.965,0,0,0-.678,3.469c.179.869,1.317,1.7,3.079.958,1.867-.785,2.829-2.877,4.91-3.36a15.872,15.872,0,0,0-3.108,2.492A10.736,10.736,0,0,1,213.755,1006Z" transform="translate(-212.268 -999.45)" fill-rule="evenodd" fill="url(#linear-gradient-19)"/>
              <path id="Path_2333" data-name="Path 2333" d="M283.316,1032.665c-4.544,1.544-4.293,4.331-7.772,5.536a2.932,2.932,0,0,1-2.494-.2,11.487,11.487,0,0,0,4.28-2.987,12.7,12.7,0,0,1,3.771-2.793A6.147,6.147,0,0,1,283.316,1032.665Z" transform="translate(-271.257 -1031.255)" fill="#c13437" fill-rule="evenodd"/>
            </g>
            <path id="Path_2334" data-name="Path 2334" d="M213.755,1006a3.792,3.792,0,0,1-1.282-1.767,4.479,4.479,0,0,1,1.476-4.779,4.974,4.974,0,0,0-.936,4.191,3.281,3.281,0,0,0,1.922,1.9A5.862,5.862,0,0,1,213.755,1006Z" transform="translate(-212.268 -999.45)" fill-rule="evenodd" fill="url(#linear-gradient-20)"/>
            <path id="Path_2335" data-name="Path 2335" d="M283.316,1047.25c-4.544,1.544-4.293,4.331-7.772,5.536a2.93,2.93,0,0,1-2.494-.2,6.428,6.428,0,0,0,1.264-.551,2.5,2.5,0,0,0,1.462-.159c2.595-1.091,2.42-3.417,7.54-4.627Z" transform="translate(-271.257 -1045.84)" fill="#ed3237" fill-rule="evenodd"/>
          </g>
          <g id="Group_2998" data-name="Group 2998">
            <path id="Path_2336" data-name="Path 2336" d="M111.245,914.72a3.791,3.791,0,0,1,1.229,1.8,4.479,4.479,0,0,1-1.618,4.733,4.962,4.962,0,0,0,.781-3.447c-.153-.874-1.265-1.738-3.049-1.049-1.889.729-2.913,2.792-5.008,3.213a15.851,15.851,0,0,0,3.18-2.4,10.744,10.744,0,0,1,4.484-2.855Z" transform="translate(-100.524 -914.08)" fill="#e6e6e6" fill-rule="evenodd"/>
            <path id="Path_2337" data-name="Path 2337" d="M0,898.493c4.587-1.409,4.42-4.2,7.933-5.3a2.932,2.932,0,0,1,2.487.274,11.48,11.48,0,0,0-4.367,2.858A12.709,12.709,0,0,1,2.2,899a6.161,6.161,0,0,1-2.2-.509Z" transform="translate(0 -893.035)" fill="#ed3237" fill-rule="evenodd"/>
            <path id="Path_2338" data-name="Path 2338" d="M324.1,914.72a3.79,3.79,0,0,1,1.229,1.8,4.479,4.479,0,0,1-1.618,4.733,4.972,4.972,0,0,0,1.06-4.161,3.281,3.281,0,0,0-1.865-1.956A5.891,5.891,0,0,1,324.1,914.72Z" transform="translate(-313.382 -914.08)" fill-rule="evenodd" fill="url(#linear-gradient-21)"/>
            <path id="Path_2339" data-name="Path 2339" d="M0,898.493c4.587-1.409,4.42-4.2,7.933-5.3a2.932,2.932,0,0,1,2.487.274,6.417,6.417,0,0,0-1.279.513,2.5,2.5,0,0,0-1.466.115c-2.626,1.013-2.521,3.343-7.674,4.4Z" transform="translate(0 -893.035)" fill-rule="evenodd" fill="url(#linear-gradient-22)"/>
          </g>
          <g id="Group_2999" data-name="Group 2999">
            <path id="Path_2340" data-name="Path 2340" d="M111.245,914.72a3.791,3.791,0,0,1,1.229,1.8,4.479,4.479,0,0,1-1.618,4.733,4.962,4.962,0,0,0,.781-3.447c-.153-.874-1.265-1.738-3.049-1.049-1.889.729-2.913,2.792-5.008,3.213a15.851,15.851,0,0,0,3.18-2.4,10.744,10.744,0,0,1,4.484-2.855Z" transform="translate(-100.524 -914.08)" fill="#e6e6e6" fill-rule="evenodd"/>
            <path id="Path_2341" data-name="Path 2341" d="M0,898.493c4.587-1.409,4.42-4.2,7.933-5.3a2.932,2.932,0,0,1,2.487.274,11.48,11.48,0,0,0-4.367,2.858A12.709,12.709,0,0,1,2.2,899a6.161,6.161,0,0,1-2.2-.509Z" transform="translate(0 -893.035)" fill="#ed3237" fill-rule="evenodd"/>
            <path id="Path_2342" data-name="Path 2342" d="M324.1,914.72a3.79,3.79,0,0,1,1.229,1.8,4.479,4.479,0,0,1-1.618,4.733,4.972,4.972,0,0,0,1.06-4.161,3.281,3.281,0,0,0-1.865-1.956A5.891,5.891,0,0,1,324.1,914.72Z" transform="translate(-313.382 -914.08)" fill-rule="evenodd" fill="url(#linear-gradient-21)"/>
            <path id="Path_2343" data-name="Path 2343" d="M0,898.493c4.587-1.409,4.42-4.2,7.933-5.3a2.932,2.932,0,0,1,2.487.274,6.417,6.417,0,0,0-1.279.513,2.5,2.5,0,0,0-1.466.115c-2.626,1.013-2.521,3.343-7.674,4.4Z" transform="translate(0 -893.035)" fill-rule="evenodd" fill="url(#linear-gradient-22)"/>
          </g>
        </g>
        <g id="Group_3005" data-name="Group 3005" transform="translate(0.046 12.037)">
          <g id="Group_3002" data-name="Group 3002" transform="translate(1.666 4.552)">
            <g id="Group_3001" data-name="Group 3001">
              <path id="Path_2344" data-name="Path 2344" d="M58.023,576.425a3.789,3.789,0,0,1,.548-2.113,4.479,4.479,0,0,1,4.626-1.9,4.963,4.963,0,0,0-3.108,1.684c-.557.691-.473,2.1,1.22,2.985,1.793.941,4.019.352,5.716,1.65a15.865,15.865,0,0,0-3.9-.812,10.746,10.746,0,0,1-5.1-1.492Z" transform="translate(-58.019 -572.309)" fill-rule="evenodd" fill="url(#linear-gradient-25)"/>
              <path id="Path_2345" data-name="Path 2345" d="M70.189,728.714c-4.083-2.522-6.073-.556-9.216-2.474a2.931,2.931,0,0,1-1.433-2.051,11.479,11.479,0,0,0,5.028,1.4,12.7,12.7,0,0,1,4.554,1.132,6.155,6.155,0,0,1,1.067,1.99Z" transform="translate(-59.495 -719.709)" fill="#c13437" fill-rule="evenodd"/>
            </g>
            <path id="Path_2346" data-name="Path 2346" d="M58.023,576.425a3.789,3.789,0,0,1,.548-2.113,4.479,4.479,0,0,1,4.626-1.9,4.973,4.973,0,0,0-3.829,1.944,3.281,3.281,0,0,0-.242,2.691,5.9,5.9,0,0,1-1.1-.62Z" transform="translate(-58.019 -572.309)" fill-rule="evenodd" fill="url(#linear-gradient-26)"/>
            <path id="Path_2347" data-name="Path 2347" d="M70.189,728.714c-4.083-2.522-6.073-.556-9.216-2.474a2.931,2.931,0,0,1-1.433-2.051,6.4,6.4,0,0,0,1.229.624,2.5,2.5,0,0,0,1.053,1.027C64.315,727.149,66,725.535,70.189,728.714Z" transform="translate(-59.495 -719.709)" fill="#ed3237" fill-rule="evenodd"/>
          </g>
          <g id="Group_3003" data-name="Group 3003">
            <path id="Path_2348" data-name="Path 2348" d="M65.059,509.9a3.792,3.792,0,0,1-.61,2.1,4.48,4.48,0,0,1-4.68,1.763,4.964,4.964,0,0,0,3.156-1.591c.577-.674.536-2.082-1.131-3.02-1.765-.994-4.007-.471-5.665-1.82a15.869,15.869,0,0,0,3.874.927A10.747,10.747,0,0,1,65.06,509.9Z" transform="translate(-54.52 -504.696)" fill="#e6e6e6" fill-rule="evenodd"/>
            <path id="Path_2349" data-name="Path 2349" d="M1.57,418.04c4.006,2.643,6.054.737,9.138,2.746a2.93,2.93,0,0,1,1.371,2.093A11.484,11.484,0,0,0,7.1,421.328a12.718,12.718,0,0,1-4.518-1.267A6.158,6.158,0,0,1,1.57,418.04Z" transform="translate(-1.57 -418.04)" fill="#ed3237" fill-rule="evenodd"/>
            <path id="Path_2350" data-name="Path 2350" d="M184.751,572.983a3.792,3.792,0,0,1-.61,2.1,4.48,4.48,0,0,1-4.68,1.763,4.972,4.972,0,0,0,3.885-1.83,3.281,3.281,0,0,0,.322-2.683,5.867,5.867,0,0,1,1.084.653Z" transform="translate(-174.211 -567.778)" fill-rule="evenodd" fill="url(#linear-gradient-27)"/>
            <path id="Path_2351" data-name="Path 2351" d="M1.58,418.05c4.006,2.643,6.054.736,9.138,2.746a2.931,2.931,0,0,1,1.371,2.093,6.433,6.433,0,0,0-1.21-.661,2.5,2.5,0,0,0-1.022-1.058c-2.453-1.381-4.183.182-8.278-3.12Z" transform="translate(-1.58 -418.05)" fill-rule="evenodd" fill="url(#linear-gradient-28)"/>
          </g>
          <g id="Group_3004" data-name="Group 3004">
            <path id="Path_2352" data-name="Path 2352" d="M65.059,509.9a3.792,3.792,0,0,1-.61,2.1,4.48,4.48,0,0,1-4.68,1.763,4.964,4.964,0,0,0,3.156-1.591c.577-.674.536-2.082-1.131-3.02-1.765-.994-4.007-.471-5.665-1.82a15.869,15.869,0,0,0,3.874.927A10.747,10.747,0,0,1,65.06,509.9Z" transform="translate(-54.52 -504.696)" fill="#e6e6e6" fill-rule="evenodd"/>
            <path id="Path_2353" data-name="Path 2353" d="M1.57,418.04c4.006,2.643,6.054.737,9.138,2.746a2.93,2.93,0,0,1,1.371,2.093A11.484,11.484,0,0,0,7.1,421.328a12.718,12.718,0,0,1-4.518-1.267A6.158,6.158,0,0,1,1.57,418.04Z" transform="translate(-1.57 -418.04)" fill="#ed3237" fill-rule="evenodd"/>
            <path id="Path_2354" data-name="Path 2354" d="M184.751,572.983a3.792,3.792,0,0,1-.61,2.1,4.48,4.48,0,0,1-4.68,1.763,4.972,4.972,0,0,0,3.885-1.83,3.281,3.281,0,0,0,.322-2.683,5.867,5.867,0,0,1,1.084.653Z" transform="translate(-174.211 -567.778)" fill-rule="evenodd" fill="url(#linear-gradient-27)"/>
            <path id="Path_2355" data-name="Path 2355" d="M1.58,418.05c4.006,2.643,6.054.736,9.138,2.746a2.931,2.931,0,0,1,1.371,2.093,6.433,6.433,0,0,0-1.21-.661,2.5,2.5,0,0,0-1.022-1.058c-2.453-1.381-4.183.182-8.278-3.12Z" transform="translate(-1.58 -418.05)" fill-rule="evenodd" fill="url(#linear-gradient-28)"/>
          </g>
        </g>
        <g id="Group_3010" data-name="Group 3010" transform="translate(8.436)">
          <g id="Group_3007" data-name="Group 3007" transform="translate(0 5.843)">
            <g id="Group_3006" data-name="Group 3006">
              <path id="Path_2356" data-name="Path 2356" d="M317.57,199.009a3.791,3.791,0,0,1,1.979-.922,4.48,4.48,0,0,1,4.411,2.359,4.964,4.964,0,0,0-3.276-1.326c-.887.01-1.919.969-1.527,2.84.415,1.982,2.286,3.325,2.364,5.46a15.872,15.872,0,0,0-1.855-3.525,10.741,10.741,0,0,1-2.095-4.886Z" transform="translate(-316.608 -198.049)" fill-rule="evenodd" fill="url(#linear-gradient-31)"/>
              <path id="Path_2357" data-name="Path 2357" d="M288.943,250.584c-.652-4.754-3.435-5.039-3.956-8.683a2.932,2.932,0,0,1,.67-2.411,11.481,11.481,0,0,0,2.117,4.771,12.71,12.71,0,0,1,2.024,4.234,6.159,6.159,0,0,1-.856,2.09Z" transform="translate(-284.951 -238.267)" fill="#c13437" fill-rule="evenodd"/>
            </g>
            <path id="Path_2358" data-name="Path 2358" d="M317.57,199.009a3.791,3.791,0,0,1,1.979-.922,4.48,4.48,0,0,1,4.411,2.359,4.973,4.973,0,0,0-3.936-1.717,3.28,3.28,0,0,0-2.23,1.525,5.883,5.883,0,0,1-.223-1.246Z" transform="translate(-316.608 -198.049)" fill-rule="evenodd" fill="url(#linear-gradient-32)"/>
            <path id="Path_2359" data-name="Path 2359" d="M288.943,250.584c-.652-4.754-3.435-5.039-3.956-8.683a2.932,2.932,0,0,1,.67-2.411,6.436,6.436,0,0,0,.3,1.345,2.5,2.5,0,0,0-.122,1.466C286.412,245.056,288.728,245.328,288.943,250.584Z" transform="translate(-284.951 -238.267)" fill="#ed3237" fill-rule="evenodd"/>
          </g>
          <g id="Group_3008" data-name="Group 3008" transform="translate(2.933)">
            <path id="Path_2360" data-name="Path 2360" d="M390.714,107.415a3.792,3.792,0,0,1-2.006.863,4.479,4.479,0,0,1-4.338-2.489,4.963,4.963,0,0,0,3.236,1.423c.887.017,1.947-.912,1.611-2.794-.356-1.994-2.186-3.392-2.2-5.528a15.859,15.859,0,0,0,1.749,3.579,10.744,10.744,0,0,1,1.949,4.946Z" transform="translate(-384.37 -95.972)" fill="#e6e6e6" fill-rule="evenodd"/>
            <path id="Path_2361" data-name="Path 2361" d="M478,0c.51,4.772,3.283,5.139,3.7,8.8a2.932,2.932,0,0,1-.742,2.39,11.482,11.482,0,0,0-1.975-4.831,12.716,12.716,0,0,1-1.9-4.292A6.164,6.164,0,0,1,478,0Z" transform="translate(-474.345 0)" fill="#ed3237" fill-rule="evenodd"/>
            <path id="Path_2362" data-name="Path 2362" d="M390.714,334.326a3.792,3.792,0,0,1-2.006.863,4.479,4.479,0,0,1-4.338-2.489,4.972,4.972,0,0,0,3.883,1.833,3.281,3.281,0,0,0,2.275-1.459,5.877,5.877,0,0,1,.186,1.252Z" transform="translate(-384.37 -322.884)" fill-rule="evenodd" fill="url(#linear-gradient-33)"/>
            <path id="Path_2363" data-name="Path 2363" d="M508.2,0c.51,4.772,3.283,5.139,3.7,8.8a2.932,2.932,0,0,1-.742,2.39,6.426,6.426,0,0,0-.26-1.354,2.5,2.5,0,0,0,.166-1.461C510.565,5.6,508.258,5.26,508.2,0Z" transform="translate(-504.546 0)" fill-rule="evenodd" fill="url(#linear-gradient-34)"/>
          </g>
          <g id="Group_3009" data-name="Group 3009" transform="translate(2.933)">
            <path id="Path_2364" data-name="Path 2364" d="M390.714,107.415a3.792,3.792,0,0,1-2.006.863,4.479,4.479,0,0,1-4.338-2.489,4.963,4.963,0,0,0,3.236,1.423c.887.017,1.947-.912,1.611-2.794-.356-1.994-2.186-3.392-2.2-5.528a15.859,15.859,0,0,0,1.749,3.579,10.744,10.744,0,0,1,1.949,4.946Z" transform="translate(-384.37 -95.972)" fill="#e6e6e6" fill-rule="evenodd"/>
            <path id="Path_2365" data-name="Path 2365" d="M478,0c.51,4.772,3.283,5.139,3.7,8.8a2.932,2.932,0,0,1-.742,2.39,11.482,11.482,0,0,0-1.975-4.831,12.716,12.716,0,0,1-1.9-4.292A6.164,6.164,0,0,1,478,0Z" transform="translate(-474.345 0)" fill="#ed3237" fill-rule="evenodd"/>
            <path id="Path_2366" data-name="Path 2366" d="M390.714,334.326a3.792,3.792,0,0,1-2.006.863,4.479,4.479,0,0,1-4.338-2.489,4.972,4.972,0,0,0,3.883,1.833,3.281,3.281,0,0,0,2.275-1.459,5.877,5.877,0,0,1,.186,1.252Z" transform="translate(-384.37 -322.884)" fill-rule="evenodd" fill="url(#linear-gradient-33)"/>
            <path id="Path_2367" data-name="Path 2367" d="M508.2,0c.51,4.772,3.283,5.139,3.7,8.8a2.932,2.932,0,0,1-.742,2.39,6.426,6.426,0,0,0-.26-1.354,2.5,2.5,0,0,0,.166-1.461C510.565,5.6,508.258,5.26,508.2,0Z" transform="translate(-504.546 0)" fill-rule="evenodd" fill="url(#linear-gradient-34)"/>
          </g>
        </g>
        <g id="Group_3015" data-name="Group 3015" transform="translate(18.516 3.76)">
          <g id="Group_3012" data-name="Group 3012">
            <g id="Group_3011" data-name="Group 3011">
              <path id="Path_2368" data-name="Path 2368" d="M725.906,128.47a3.793,3.793,0,0,1,1.971.94,4.48,4.48,0,0,1,.986,4.9,4.965,4.965,0,0,0-1.061-3.372c-.572-.678-1.969-.864-3.163.629-1.265,1.582-1.111,3.879-2.708,5.3a15.875,15.875,0,0,0,1.54-3.674,10.742,10.742,0,0,1,2.436-4.725Z" transform="translate(-719.071 -128.44)" fill-rule="evenodd" fill="url(#linear-gradient-37)"/>
              <path id="Path_2369" data-name="Path 2369" d="M625.04,137.035c3.253-3.528,1.7-5.856,4.182-8.576a2.932,2.932,0,0,1,2.286-1.016,11.48,11.48,0,0,0-2.333,4.669,12.711,12.711,0,0,1-1.978,4.255,6.16,6.16,0,0,1-2.157.669Z" transform="translate(-625.04 -127.442)" fill="#c13437" fill-rule="evenodd"/>
            </g>
            <path id="Path_2370" data-name="Path 2370" d="M829.739,128.48a3.792,3.792,0,0,1,1.971.94,4.479,4.479,0,0,1,.986,4.9,4.973,4.973,0,0,0-1.18-4.129,3.28,3.28,0,0,0-2.6-.75A5.884,5.884,0,0,1,829.739,128.48Z" transform="translate(-822.905 -128.449)" fill-rule="evenodd" fill="url(#linear-gradient-38)"/>
            <path id="Path_2371" data-name="Path 2371" d="M625.04,137.035c3.253-3.528,1.7-5.856,4.182-8.576a2.932,2.932,0,0,1,2.286-1.016,6.417,6.417,0,0,0-.847,1.088,2.5,2.5,0,0,0-1.209.838c-1.759,2.2-.494,4.158-4.413,7.667Z" transform="translate(-625.04 -127.442)" fill="#ed3237" fill-rule="evenodd"/>
          </g>
          <g id="Group_3013" data-name="Group 3013" transform="translate(5.366 0.041)">
            <path id="Path_2372" data-name="Path 2372" d="M810.085,173.667a3.789,3.789,0,0,1-1.942-1,4.479,4.479,0,0,1-.84-4.931,4.966,4.966,0,0,0,.961,3.4c.551.7,1.942.922,3.18-.535,1.312-1.543,1.226-3.845,2.865-5.215a15.861,15.861,0,0,0-1.648,3.626,10.741,10.741,0,0,1-2.576,4.65Z" transform="translate(-806.906 -164.312)" fill="#e6e6e6" fill-rule="evenodd"/>
            <path id="Path_2373" data-name="Path 2373" d="M933.781,128.84c-3.357,3.429-1.875,5.8-4.435,8.448a2.933,2.933,0,0,1-2.316.948,11.482,11.482,0,0,0,2.471-4.6,12.712,12.712,0,0,1,2.1-4.195,6.159,6.159,0,0,1,2.176-.6Z" transform="translate(-923.486 -128.84)" fill="#ed3237" fill-rule="evenodd"/>
            <path id="Path_2374" data-name="Path 2374" d="M810.085,250.909a3.789,3.789,0,0,1-1.942-1,4.479,4.479,0,0,1-.84-4.931,4.974,4.974,0,0,0,1.057,4.162,3.282,3.282,0,0,0,2.573.827,5.887,5.887,0,0,1-.847.94Z" transform="translate(-806.906 -241.553)" fill-rule="evenodd" fill="url(#linear-gradient-39)"/>
            <path id="Path_2375" data-name="Path 2375" d="M933.781,128.84c-3.357,3.429-1.875,5.8-4.435,8.448a2.933,2.933,0,0,1-2.316.948,6.428,6.428,0,0,0,.879-1.062,2.5,2.5,0,0,0,1.233-.8c1.823-2.145.617-4.141,4.639-7.533Z" transform="translate(-923.486 -128.84)" fill-rule="evenodd" fill="url(#linear-gradient-40)"/>
          </g>
          <g id="Group_3014" data-name="Group 3014" transform="translate(5.366 0.041)">
            <path id="Path_2376" data-name="Path 2376" d="M810.085,173.667a3.789,3.789,0,0,1-1.942-1,4.479,4.479,0,0,1-.84-4.931,4.966,4.966,0,0,0,.961,3.4c.551.7,1.942.922,3.18-.535,1.312-1.543,1.226-3.845,2.865-5.215a15.861,15.861,0,0,0-1.648,3.626,10.741,10.741,0,0,1-2.576,4.65Z" transform="translate(-806.906 -164.312)" fill="#e6e6e6" fill-rule="evenodd"/>
            <path id="Path_2377" data-name="Path 2377" d="M933.781,128.84c-3.357,3.429-1.875,5.8-4.435,8.448a2.933,2.933,0,0,1-2.316.948,11.482,11.482,0,0,0,2.471-4.6,12.712,12.712,0,0,1,2.1-4.195,6.159,6.159,0,0,1,2.176-.6Z" transform="translate(-923.486 -128.84)" fill="#ed3237" fill-rule="evenodd"/>
            <path id="Path_2378" data-name="Path 2378" d="M810.085,250.909a3.789,3.789,0,0,1-1.942-1,4.479,4.479,0,0,1-.84-4.931,4.974,4.974,0,0,0,1.057,4.162,3.282,3.282,0,0,0,2.573.827,5.887,5.887,0,0,1-.847.94Z" transform="translate(-806.906 -241.553)" fill-rule="evenodd" fill="url(#linear-gradient-39)"/>
            <path id="Path_2379" data-name="Path 2379" d="M933.781,128.84c-3.357,3.429-1.875,5.8-4.435,8.448a2.933,2.933,0,0,1-2.316.948,6.428,6.428,0,0,0,.879-1.062,2.5,2.5,0,0,0,1.233-.8c1.823-2.145.617-4.141,4.639-7.533Z" transform="translate(-923.486 -128.84)" fill-rule="evenodd" fill="url(#linear-gradient-40)"/>
          </g>
        </g>
      </g>
    </g>
    <text id="umkmnusantara" transform="translate(301 62)" fill="#7f7f7f" font-size="24" font-family="OrchideaPro-Medium, Orchidea Pro" font-weight="500"><tspan x="-115.944" y="0">UMKM</tspan><tspan y="0" fill="#ed3237">NUSANTARA</tspan></text>
  </g>
</svg>
