<svg xmlns="http://www.w3.org/2000/svg" width="325.438" height="55.203" viewBox="0 0 325.438 55.203">
  <g id="logo" transform="translate(-128.372 -32)">
    <g id="Layer_x0020_1" transform="translate(128.372 32)">
      <g id="_2143237289664" transform="translate(0 0)">
        <g id="Group_2985" data-name="Group 2985" transform="translate(33.129 15.667)">
          <g id="Group_2982" data-name="Group 2982">
            <g id="Group_2981" data-name="Group 2981">
              <path id="Path_2296" data-name="Path 2296" d="M982.043,473.344a4.823,4.823,0,0,1,.676,2.7,5.7,5.7,0,0,1-4.01,4.945,6.318,6.318,0,0,0,2.446-3.776c.2-1.111-.749-2.631-3.183-2.592-2.577.042-4.706,2.057-7.393,1.641a20.189,20.189,0,0,0,4.852-1.47c2.183-.864,4.359-1.724,6.611-1.442Z" transform="translate(-967.119 -471.532)" fill="#fff" fill-rule="evenodd"/>
              <path id="Path_2297" data-name="Path 2297" d="M878.42,429.347c6.1.33,7.124-3.081,11.8-2.854a3.732,3.732,0,0,1,2.851,1.418c-2.219-.184-4.342.656-6.472,1.5a16.19,16.19,0,0,1-5.778,1.511,7.847,7.847,0,0,1-2.406-1.573Z" transform="translate(-878.42 -426.482)" fill="#fff" fill-rule="evenodd"/>
            </g>
            <path id="Path_2298" data-name="Path 2298" d="M1190.393,473.334a4.819,4.819,0,0,1,.677,2.7,5.7,5.7,0,0,1-4.01,4.945,6.331,6.331,0,0,0,3.093-4.506,4.176,4.176,0,0,0-1.37-3.155A7.473,7.473,0,0,1,1190.393,473.334Z" transform="translate(-1175.469 -471.522)" fill="#fff" fill-rule="evenodd"/>
            <path id="Path_2299" data-name="Path 2299" d="M878.42,429.347c6.1.33,7.124-3.081,11.8-2.854a3.732,3.732,0,0,1,2.851,1.418,8.173,8.173,0,0,0-1.754.051,3.184,3.184,0,0,0-1.8-.506c-3.582.058-4.479,2.888-11.1,1.891Z" transform="translate(-878.42 -426.482)" fill="#fff" fill-rule="evenodd"/>
          </g>
          <g id="Group_2983" data-name="Group 2983" transform="translate(6.516 3.55)">
            <path id="Path_2300" data-name="Path 2300" d="M1052.542,528.557a4.825,4.825,0,0,1-.6-2.714,5.7,5.7,0,0,1,4.155-4.823,6.32,6.32,0,0,0-2.557,3.7c-.234,1.1.671,2.653,3.1,2.685,2.578.035,4.765-1.917,7.438-1.42a20.188,20.188,0,0,0-4.894,1.325C1056.984,528.11,1054.784,528.9,1052.542,528.557Z" transform="translate(-1051.934 -521.02)" fill="#fff" fill-rule="evenodd"/>
            <path id="Path_2301" data-name="Path 2301" d="M1089.652,663.3c-6.086-.511-7.212,2.867-11.884,2.5a3.732,3.732,0,0,1-2.808-1.5c2.213.25,4.36-.526,6.514-1.305a16.189,16.189,0,0,1,5.821-1.339A7.843,7.843,0,0,1,1089.652,663.3Z" transform="translate(-1074.095 -656.369)" fill="#fff" fill-rule="evenodd"/>
            <path id="Path_2302" data-name="Path 2302" d="M1052.542,528.557a4.825,4.825,0,0,1-.6-2.714,5.7,5.7,0,0,1,4.155-4.823,6.329,6.329,0,0,0-3.225,4.412,4.174,4.174,0,0,0,1.275,3.194A7.469,7.469,0,0,1,1052.542,528.557Z" transform="translate(-1051.934 -521.02)" fill="#fff" fill-rule="evenodd"/>
            <path id="Path_2303" data-name="Path 2303" d="M1089.652,697.919c-6.086-.511-7.212,2.867-11.884,2.5a3.731,3.731,0,0,1-2.808-1.5,8.162,8.162,0,0,0,1.755,0,3.182,3.182,0,0,0,1.787.559c3.583.048,4.563-2.753,11.151-1.56Z" transform="translate(-1074.095 -690.991)" fill="#fff" fill-rule="evenodd"/>
          </g>
          <g id="Group_2984" data-name="Group 2984" transform="translate(6.516 3.55)">
            <path id="Path_2304" data-name="Path 2304" d="M1052.542,528.557a4.825,4.825,0,0,1-.6-2.714,5.7,5.7,0,0,1,4.155-4.823,6.32,6.32,0,0,0-2.557,3.7c-.234,1.1.671,2.653,3.1,2.685,2.578.035,4.765-1.917,7.438-1.42a20.188,20.188,0,0,0-4.894,1.325C1056.984,528.11,1054.784,528.9,1052.542,528.557Z" transform="translate(-1051.934 -521.02)" fill="#fff" fill-rule="evenodd"/>
            <path id="Path_2305" data-name="Path 2305" d="M1089.652,663.3c-6.086-.511-7.212,2.867-11.884,2.5a3.732,3.732,0,0,1-2.808-1.5c2.213.25,4.36-.526,6.514-1.305a16.189,16.189,0,0,1,5.821-1.339A7.843,7.843,0,0,1,1089.652,663.3Z" transform="translate(-1074.095 -656.369)" fill="#fff" fill-rule="evenodd"/>
            <path id="Path_2306" data-name="Path 2306" d="M1052.542,528.557a4.825,4.825,0,0,1-.6-2.714,5.7,5.7,0,0,1,4.155-4.823,6.329,6.329,0,0,0-3.225,4.412,4.174,4.174,0,0,0,1.275,3.194A7.469,7.469,0,0,1,1052.542,528.557Z" transform="translate(-1051.934 -521.02)" fill="#fff" fill-rule="evenodd"/>
            <path id="Path_2307" data-name="Path 2307" d="M1089.652,697.919c-6.086-.511-7.212,2.867-11.884,2.5a3.731,3.731,0,0,1-2.808-1.5,8.162,8.162,0,0,0,1.755,0,3.182,3.182,0,0,0,1.787.559c3.583.048,4.563-2.753,11.151-1.56Z" transform="translate(-1074.095 -690.991)" fill="#fff" fill-rule="evenodd"/>
          </g>
        </g>
        <g id="Group_2990" data-name="Group 2990" transform="translate(35.893 26.44)">
          <g id="Group_2987" data-name="Group 2987" transform="translate(1.94)">
            <g id="Group_2986" data-name="Group 2986">
              <path id="Path_2308" data-name="Path 2308" d="M1034.875,838.381a4.825,4.825,0,0,1-1.628,2.252,5.7,5.7,0,0,1-6.365.112,6.316,6.316,0,0,0,4.464-.557c.98-.561,1.533-2.266-.063-4.1-1.69-1.946-4.6-2.279-6.012-4.6a20.168,20.168,0,0,0,4.247,2.769C1031.584,835.364,1033.642,836.477,1034.875,838.381Z" transform="translate(-1024.459 -827.634)" fill="#fff" fill-rule="evenodd"/>
              <path id="Path_2309" data-name="Path 2309" d="M1003.672,729.07c3.672,4.882,6.942,3.472,9.779,7.2a3.732,3.732,0,0,1,.749,3.1c-1.287-1.817-3.3-2.9-5.311-3.991a16.171,16.171,0,0,1-4.874-3.451,7.821,7.821,0,0,1-.343-2.854Z" transform="translate(-1003.663 -729.07)" fill="#fff" fill-rule="evenodd"/>
            </g>
            <path id="Path_2310" data-name="Path 2310" d="M1076.183,983.306a4.827,4.827,0,0,1-1.628,2.252,5.7,5.7,0,0,1-6.365.111,6.331,6.331,0,0,0,5.439-.532,4.176,4.176,0,0,0,1.534-3.078A7.511,7.511,0,0,1,1076.183,983.306Z" transform="translate(-1065.766 -972.559)" fill="#fff" fill-rule="evenodd"/>
            <path id="Path_2311" data-name="Path 2311" d="M1003.9,729.07c3.672,4.882,6.942,3.472,9.78,7.2a3.733,3.733,0,0,1,.749,3.1,8.187,8.187,0,0,0-1.168-1.31,3.18,3.18,0,0,0-.772-1.705C1010.14,733.646,1007.4,734.78,1003.9,729.07Z" transform="translate(-1003.891 -729.07)" fill="#fff" fill-rule="evenodd"/>
          </g>
          <g id="Group_2988" data-name="Group 2988" transform="translate(0 7.609)">
            <path id="Path_2312" data-name="Path 2312" d="M958.33,934.821a4.822,4.822,0,0,1,1.694-2.2,5.7,5.7,0,0,1,6.365.078,6.32,6.32,0,0,0-4.479.424c-1,.531-1.6,2.22-.058,4.1,1.632,2,4.533,2.415,5.873,4.781a20.183,20.183,0,0,0-4.163-2.893c-2.032-1.177-4.057-2.35-5.232-4.29Z" transform="translate(-958.092 -931.685)" fill="#fff" fill-rule="evenodd"/>
            <path id="Path_2313" data-name="Path 2313" d="M962.32,1037.694c-3.525-4.988-6.836-3.676-9.562-7.488a3.73,3.73,0,0,1-.657-3.116c1.232,1.854,3.208,3,5.19,4.146a16.189,16.189,0,0,1,4.77,3.595A7.85,7.85,0,0,1,962.32,1037.694Z" transform="translate(-951.998 -1023.507)" fill="#fff" fill-rule="evenodd"/>
            <path id="Path_2314" data-name="Path 2314" d="M958.33,934.821a4.822,4.822,0,0,1,1.694-2.2,5.7,5.7,0,0,1,6.365.078,6.33,6.33,0,0,0-5.453.37,4.174,4.174,0,0,0-1.624,3.031A7.471,7.471,0,0,1,958.33,934.821Z" transform="translate(-958.092 -931.685)" fill="#fff" fill-rule="evenodd"/>
            <path id="Path_2315" data-name="Path 2315" d="M962.32,1037.694c-3.525-4.988-6.836-3.676-9.562-7.488a3.73,3.73,0,0,1-.657-3.116,8.157,8.157,0,0,0,1.128,1.343,3.179,3.179,0,0,0,.722,1.728c2.268,2.773,5.043,1.721,8.368,7.533Z" transform="translate(-951.998 -1023.507)" fill="#fff" fill-rule="evenodd"/>
          </g>
          <g id="Group_2989" data-name="Group 2989" transform="translate(0 7.609)">
            <path id="Path_2316" data-name="Path 2316" d="M958.33,934.821a4.822,4.822,0,0,1,1.694-2.2,5.7,5.7,0,0,1,6.365.078,6.32,6.32,0,0,0-4.479.424c-1,.531-1.6,2.22-.058,4.1,1.632,2,4.533,2.415,5.873,4.781a20.183,20.183,0,0,0-4.163-2.893c-2.032-1.177-4.057-2.35-5.232-4.29Z" transform="translate(-958.092 -931.685)" fill="#fff" fill-rule="evenodd"/>
            <path id="Path_2317" data-name="Path 2317" d="M962.32,1037.694c-3.525-4.988-6.836-3.676-9.562-7.488a3.73,3.73,0,0,1-.657-3.116c1.232,1.854,3.208,3,5.19,4.146a16.189,16.189,0,0,1,4.77,3.595A7.85,7.85,0,0,1,962.32,1037.694Z" transform="translate(-951.998 -1023.507)" fill="#fff" fill-rule="evenodd"/>
            <path id="Path_2318" data-name="Path 2318" d="M958.33,934.821a4.822,4.822,0,0,1,1.694-2.2,5.7,5.7,0,0,1,6.365.078,6.33,6.33,0,0,0-5.453.37,4.174,4.174,0,0,0-1.624,3.031A7.471,7.471,0,0,1,958.33,934.821Z" transform="translate(-958.092 -931.685)" fill="#fff" fill-rule="evenodd"/>
            <path id="Path_2319" data-name="Path 2319" d="M962.32,1037.694c-3.525-4.988-6.836-3.676-9.562-7.488a3.73,3.73,0,0,1-.657-3.116,8.157,8.157,0,0,0,1.128,1.343,3.179,3.179,0,0,0,.722,1.728c2.268,2.773,5.043,1.721,8.368,7.533Z" transform="translate(-951.998 -1023.507)" fill="#fff" fill-rule="evenodd"/>
          </g>
        </g>
        <g id="Group_2995" data-name="Group 2995" transform="translate(20.538 36.612)">
          <g id="Group_2992" data-name="Group 2992" transform="translate(4.244)">
            <g id="Group_2991" data-name="Group 2991">
              <path id="Path_2320" data-name="Path 2320" d="M619.47,1083.8a4.827,4.827,0,0,1-2.772-.2,5.7,5.7,0,0,1-3.445-5.354,6.317,6.317,0,0,0,2.823,3.5c.993.538,2.734.11,3.456-2.214.765-2.462-.484-5.113.751-7.536a20.224,20.224,0,0,0-.119,5.068c.138,2.344.276,4.679-.694,6.731Z" transform="translate(-613.247 -1069.293)" fill="#fff" fill-rule="evenodd"/>
              <path id="Path_2321" data-name="Path 2321" d="M794.083,999.92c-2.218,5.692.7,7.73-.975,12.106a3.731,3.731,0,0,1-2.237,2.266c.868-2.051.733-4.33.6-6.616a16.179,16.179,0,0,1,.369-5.961,7.845,7.845,0,0,1,2.246-1.794Z" transform="translate(-784.2 -999.92)" fill="#fff" fill-rule="evenodd"/>
            </g>
            <path id="Path_2322" data-name="Path 2322" d="M619.47,1243.892a4.826,4.826,0,0,1-2.772-.2,5.7,5.7,0,0,1-3.445-5.353,6.328,6.328,0,0,0,3.315,4.345,4.176,4.176,0,0,0,3.424-.316A7.5,7.5,0,0,1,619.47,1243.892Z" transform="translate(-613.247 -1229.387)" fill="#fff" fill-rule="evenodd"/>
            <path id="Path_2323" data-name="Path 2323" d="M794.083,999.92c-2.218,5.692.7,7.73-.975,12.106a3.731,3.731,0,0,1-2.237,2.266,8.183,8.183,0,0,0,.5-1.682,3.18,3.18,0,0,0,1.043-1.554c1.064-3.422-1.345-5.156,1.671-11.135Z" transform="translate(-784.2 -999.92)" fill="#fff" fill-rule="evenodd"/>
          </g>
          <g id="Group_2993" data-name="Group 2993" transform="translate(0 4.11)">
            <path id="Path_2324" data-name="Path 2324" d="M579.344,1109.459a4.824,4.824,0,0,1,2.764.281,5.7,5.7,0,0,1,3.284,5.453,6.317,6.317,0,0,0-2.718-3.585c-.977-.568-2.729-.191-3.52,2.111-.838,2.438.332,5.125-.974,7.509a20.191,20.191,0,0,0,.27-5.063c-.069-2.347-.137-4.686.894-6.707Z" transform="translate(-575.253 -1109.369)" fill="#fff" fill-rule="evenodd"/>
            <path id="Path_2325" data-name="Path 2325" d="M500.24,1129.259c2.386-5.623-.471-7.747,1.335-12.071a3.73,3.73,0,0,1,2.3-2.2c-.928,2.024-.862,4.306-.794,6.6a16.189,16.189,0,0,1-.546,5.948,7.845,7.845,0,0,1-2.3,1.726Z" transform="translate(-500.24 -1114.779)" fill="#fff" fill-rule="evenodd"/>
            <path id="Path_2326" data-name="Path 2326" d="M594.608,1109.459a4.824,4.824,0,0,1,2.764.281,5.7,5.7,0,0,1,3.284,5.453,6.329,6.329,0,0,0-3.184-4.442,4.174,4.174,0,0,0-3.432.214,7.463,7.463,0,0,1,.568-1.507Z" transform="translate(-590.517 -1109.369)" fill="#fff" fill-rule="evenodd"/>
            <path id="Path_2327" data-name="Path 2327" d="M500.25,1129.259c2.386-5.623-.471-7.747,1.335-12.071a3.729,3.729,0,0,1,2.3-2.2,8.187,8.187,0,0,0-.549,1.666,3.176,3.176,0,0,0-1.089,1.523c-1.165,3.388,1.19,5.194-2,11.081Z" transform="translate(-500.249 -1114.779)" fill="#fff" fill-rule="evenodd"/>
          </g>
          <g id="Group_2994" data-name="Group 2994" transform="translate(0 4.11)">
            <path id="Path_2328" data-name="Path 2328" d="M579.344,1109.459a4.824,4.824,0,0,1,2.764.281,5.7,5.7,0,0,1,3.284,5.453,6.317,6.317,0,0,0-2.718-3.585c-.977-.568-2.729-.191-3.52,2.111-.838,2.438.332,5.125-.974,7.509a20.191,20.191,0,0,0,.27-5.063c-.069-2.347-.137-4.686.894-6.707Z" transform="translate(-575.253 -1109.369)" fill="#fff" fill-rule="evenodd"/>
            <path id="Path_2329" data-name="Path 2329" d="M500.24,1129.259c2.386-5.623-.471-7.747,1.335-12.071a3.73,3.73,0,0,1,2.3-2.2c-.928,2.024-.862,4.306-.794,6.6a16.189,16.189,0,0,1-.546,5.948,7.845,7.845,0,0,1-2.3,1.726Z" transform="translate(-500.24 -1114.779)" fill="#fff" fill-rule="evenodd"/>
            <path id="Path_2330" data-name="Path 2330" d="M594.608,1109.459a4.824,4.824,0,0,1,2.764.281,5.7,5.7,0,0,1,3.284,5.453,6.329,6.329,0,0,0-3.184-4.442,4.174,4.174,0,0,0-3.432.214,7.463,7.463,0,0,1,.568-1.507Z" transform="translate(-590.517 -1109.369)" fill="#fff" fill-rule="evenodd"/>
            <path id="Path_2331" data-name="Path 2331" d="M500.25,1129.259c2.386-5.623-.471-7.747,1.335-12.071a3.729,3.729,0,0,1,2.3-2.2,8.187,8.187,0,0,0-.549,1.666,3.176,3.176,0,0,0-1.089,1.523c-1.165,3.388,1.19,5.194-2,11.081Z" transform="translate(-500.249 -1114.779)" fill="#fff" fill-rule="evenodd"/>
          </g>
        </g>
        <g id="Group_3000" data-name="Group 3000" transform="translate(0 32.806)">
          <g id="Group_2997" data-name="Group 2997" transform="translate(7.971 3.996)">
            <g id="Group_2996" data-name="Group 2996">
              <path id="Path_2332" data-name="Path 2332" d="M214.16,1007.781a4.826,4.826,0,0,1-1.632-2.249,5.7,5.7,0,0,1,1.879-6.083,6.32,6.32,0,0,0-.863,4.415c.227,1.107,1.676,2.163,3.919,1.219,2.376-1,3.6-3.662,6.25-4.276a20.2,20.2,0,0,0-3.956,3.172C218.053,1005.6,216.354,1007.2,214.16,1007.781Z" transform="translate(-212.268 -999.45)" fill="#fff" fill-rule="evenodd"/>
              <path id="Path_2333" data-name="Path 2333" d="M286.116,1032.786c-5.783,1.966-5.464,5.512-9.892,7.046a3.732,3.732,0,0,1-3.174-.253c2.128-.657,3.785-2.227,5.448-3.8a16.169,16.169,0,0,1,4.8-3.555A7.823,7.823,0,0,1,286.116,1032.786Z" transform="translate(-270.767 -1030.991)" fill="#fff" fill-rule="evenodd"/>
            </g>
            <path id="Path_2334" data-name="Path 2334" d="M214.16,1007.781a4.826,4.826,0,0,1-1.632-2.249,5.7,5.7,0,0,1,1.879-6.083,6.33,6.33,0,0,0-1.191,5.334,4.175,4.175,0,0,0,2.446,2.417A7.458,7.458,0,0,1,214.16,1007.781Z" transform="translate(-212.268 -999.45)" fill="#fff" fill-rule="evenodd"/>
            <path id="Path_2335" data-name="Path 2335" d="M286.116,1047.25c-5.783,1.966-5.464,5.512-9.892,7.046a3.729,3.729,0,0,1-3.174-.254,8.173,8.173,0,0,0,1.608-.7,3.188,3.188,0,0,0,1.861-.2c3.3-1.389,3.081-4.348,9.6-5.889Z" transform="translate(-270.767 -1045.455)" fill="#fff" fill-rule="evenodd"/>
          </g>
          <g id="Group_2998" data-name="Group 2998">
            <path id="Path_2336" data-name="Path 2336" d="M113.336,914.72a4.825,4.825,0,0,1,1.564,2.3,5.7,5.7,0,0,1-2.059,6.024,6.316,6.316,0,0,0,.994-4.387c-.194-1.113-1.611-2.212-3.881-1.335-2.4.928-3.708,3.554-6.374,4.089a20.173,20.173,0,0,0,4.048-3.053c1.751-1.563,3.5-3.121,5.708-3.633Z" transform="translate(-99.69 -913.905)" fill="#fff" fill-rule="evenodd"/>
            <path id="Path_2337" data-name="Path 2337" d="M0,899.982c5.839-1.793,5.625-5.348,10.1-6.749a3.732,3.732,0,0,1,3.166.348c-2.146.593-3.85,2.113-5.559,3.638a16.176,16.176,0,0,1-4.9,3.411,7.842,7.842,0,0,1-2.8-.647Z" transform="translate(0 -893.035)" fill="#fff" fill-rule="evenodd"/>
            <path id="Path_2338" data-name="Path 2338" d="M324.429,914.72a4.824,4.824,0,0,1,1.564,2.3,5.7,5.7,0,0,1-2.059,6.024,6.329,6.329,0,0,0,1.349-5.3,4.176,4.176,0,0,0-2.373-2.489A7.5,7.5,0,0,1,324.429,914.72Z" transform="translate(-310.783 -913.905)" fill="#fff" fill-rule="evenodd"/>
            <path id="Path_2339" data-name="Path 2339" d="M0,899.982c5.839-1.793,5.625-5.348,10.1-6.749a3.732,3.732,0,0,1,3.166.348,8.172,8.172,0,0,0-1.628.653,3.182,3.182,0,0,0-1.866.147c-3.343,1.289-3.209,4.254-9.768,5.6Z" transform="translate(0 -893.035)" fill="#fff" fill-rule="evenodd"/>
          </g>
          <g id="Group_2999" data-name="Group 2999">
            <path id="Path_2340" data-name="Path 2340" d="M113.336,914.72a4.825,4.825,0,0,1,1.564,2.3,5.7,5.7,0,0,1-2.059,6.024,6.316,6.316,0,0,0,.994-4.387c-.194-1.113-1.611-2.212-3.881-1.335-2.4.928-3.708,3.554-6.374,4.089a20.173,20.173,0,0,0,4.048-3.053c1.751-1.563,3.5-3.121,5.708-3.633Z" transform="translate(-99.69 -913.905)" fill="#fff" fill-rule="evenodd"/>
            <path id="Path_2341" data-name="Path 2341" d="M0,899.982c5.839-1.793,5.625-5.348,10.1-6.749a3.732,3.732,0,0,1,3.166.348c-2.146.593-3.85,2.113-5.559,3.638a16.176,16.176,0,0,1-4.9,3.411,7.842,7.842,0,0,1-2.8-.647Z" transform="translate(0 -893.035)" fill="#fff" fill-rule="evenodd"/>
            <path id="Path_2342" data-name="Path 2342" d="M324.429,914.72a4.824,4.824,0,0,1,1.564,2.3,5.7,5.7,0,0,1-2.059,6.024,6.329,6.329,0,0,0,1.349-5.3,4.176,4.176,0,0,0-2.373-2.489A7.5,7.5,0,0,1,324.429,914.72Z" transform="translate(-310.783 -913.905)" fill="#fff" fill-rule="evenodd"/>
            <path id="Path_2343" data-name="Path 2343" d="M0,899.982c5.839-1.793,5.625-5.348,10.1-6.749a3.732,3.732,0,0,1,3.166.348,8.172,8.172,0,0,0-1.628.653,3.182,3.182,0,0,0-1.866.147c-3.343,1.289-3.209,4.254-9.768,5.6Z" transform="translate(0 -893.035)" fill="#fff" fill-rule="evenodd"/>
          </g>
        </g>
        <g id="Group_3005" data-name="Group 3005" transform="translate(0.059 15.32)">
          <g id="Group_3002" data-name="Group 3002" transform="translate(2.12 5.793)">
            <g id="Group_3001" data-name="Group 3001">
              <path id="Path_2344" data-name="Path 2344" d="M58.025,577.547a4.823,4.823,0,0,1,.7-2.69,5.7,5.7,0,0,1,5.888-2.42,6.317,6.317,0,0,0-3.956,2.143c-.709.879-.6,2.669,1.553,3.8,2.283,1.2,5.116.448,7.276,2.1a20.191,20.191,0,0,0-4.963-1.034c-2.33-.288-4.652-.574-6.494-1.9Z" transform="translate(-58.019 -572.309)" fill="#fff" fill-rule="evenodd"/>
              <path id="Path_2345" data-name="Path 2345" d="M73.093,729.948c-5.2-3.21-7.729-.708-11.729-3.148a3.731,3.731,0,0,1-1.824-2.61c1.86,1.224,4.126,1.5,6.4,1.784a16.169,16.169,0,0,1,5.8,1.441,7.834,7.834,0,0,1,1.358,2.533Z" transform="translate(-59.483 -718.486)" fill="#fff" fill-rule="evenodd"/>
            </g>
            <path id="Path_2346" data-name="Path 2346" d="M58.025,577.547a4.823,4.823,0,0,1,.7-2.69,5.7,5.7,0,0,1,5.888-2.42,6.33,6.33,0,0,0-4.873,2.475,4.175,4.175,0,0,0-.308,3.425,7.506,7.506,0,0,1-1.4-.79Z" transform="translate(-58.019 -572.309)" fill="#fff" fill-rule="evenodd"/>
            <path id="Path_2347" data-name="Path 2347" d="M73.093,729.948c-5.2-3.21-7.729-.708-11.729-3.148a3.731,3.731,0,0,1-1.824-2.61,8.146,8.146,0,0,0,1.564.794,3.183,3.183,0,0,0,1.34,1.307C65.617,727.957,67.759,725.9,73.093,729.948Z" transform="translate(-59.483 -718.486)" fill="#fff" fill-rule="evenodd"/>
          </g>
          <g id="Group_3003" data-name="Group 3003">
            <path id="Path_2348" data-name="Path 2348" d="M67.5,510.6a4.826,4.826,0,0,1-.777,2.668,5.7,5.7,0,0,1-5.957,2.244,6.318,6.318,0,0,0,4.017-2.024c.735-.858.682-2.65-1.439-3.844-2.246-1.265-5.1-.6-7.21-2.316a20.2,20.2,0,0,0,4.931,1.18c2.32.357,4.633.712,6.435,2.092Z" transform="translate(-54.081 -503.977)" fill="#fff" fill-rule="evenodd"/>
            <path id="Path_2349" data-name="Path 2349" d="M1.57,418.04c5.1,3.363,7.7.937,11.631,3.5a3.73,3.73,0,0,1,1.745,2.664c-1.823-1.279-4.079-1.626-6.343-1.974a16.186,16.186,0,0,1-5.751-1.613A7.838,7.838,0,0,1,1.57,418.04Z" transform="translate(-1.57 -418.04)" fill="#fff" fill-rule="evenodd"/>
            <path id="Path_2350" data-name="Path 2350" d="M186.194,573.161a4.826,4.826,0,0,1-.777,2.668,5.7,5.7,0,0,1-5.957,2.244,6.328,6.328,0,0,0,4.944-2.329,4.176,4.176,0,0,0,.41-3.415,7.467,7.467,0,0,1,1.38.831Z" transform="translate(-172.78 -566.536)" fill="#fff" fill-rule="evenodd"/>
            <path id="Path_2351" data-name="Path 2351" d="M1.58,418.05c5.1,3.363,7.7.937,11.631,3.5a3.73,3.73,0,0,1,1.745,2.664,8.19,8.19,0,0,0-1.54-.841,3.181,3.181,0,0,0-1.3-1.346c-3.122-1.758-5.324.232-10.536-3.971Z" transform="translate(-1.58 -418.05)" fill="#fff" fill-rule="evenodd"/>
          </g>
          <g id="Group_3004" data-name="Group 3004">
            <path id="Path_2352" data-name="Path 2352" d="M67.5,510.6a4.826,4.826,0,0,1-.777,2.668,5.7,5.7,0,0,1-5.957,2.244,6.318,6.318,0,0,0,4.017-2.024c.735-.858.682-2.65-1.439-3.844-2.246-1.265-5.1-.6-7.21-2.316a20.2,20.2,0,0,0,4.931,1.18c2.32.357,4.633.712,6.435,2.092Z" transform="translate(-54.081 -503.977)" fill="#fff" fill-rule="evenodd"/>
            <path id="Path_2353" data-name="Path 2353" d="M1.57,418.04c5.1,3.363,7.7.937,11.631,3.5a3.73,3.73,0,0,1,1.745,2.664c-1.823-1.279-4.079-1.626-6.343-1.974a16.186,16.186,0,0,1-5.751-1.613A7.838,7.838,0,0,1,1.57,418.04Z" transform="translate(-1.57 -418.04)" fill="#fff" fill-rule="evenodd"/>
            <path id="Path_2354" data-name="Path 2354" d="M186.194,573.161a4.826,4.826,0,0,1-.777,2.668,5.7,5.7,0,0,1-5.957,2.244,6.328,6.328,0,0,0,4.944-2.329,4.176,4.176,0,0,0,.41-3.415,7.467,7.467,0,0,1,1.38.831Z" transform="translate(-172.78 -566.536)" fill="#fff" fill-rule="evenodd"/>
            <path id="Path_2355" data-name="Path 2355" d="M1.58,418.05c5.1,3.363,7.7.937,11.631,3.5a3.73,3.73,0,0,1,1.745,2.664,8.19,8.19,0,0,0-1.54-.841,3.181,3.181,0,0,0-1.3-1.346c-3.122-1.758-5.324.232-10.536-3.971Z" transform="translate(-1.58 -418.05)" fill="#fff" fill-rule="evenodd"/>
          </g>
        </g>
        <g id="Group_3010" data-name="Group 3010" transform="translate(10.737)">
          <g id="Group_3007" data-name="Group 3007" transform="translate(0 7.437)">
            <g id="Group_3006" data-name="Group 3006">
              <path id="Path_2356" data-name="Path 2356" d="M317.57,199.271a4.825,4.825,0,0,1,2.519-1.174,5.7,5.7,0,0,1,5.614,3,6.319,6.319,0,0,0-4.17-1.688c-1.129.012-2.443,1.233-1.943,3.615.528,2.523,2.91,4.232,3.008,6.949a20.2,20.2,0,0,0-2.361-4.487c-1.261-1.981-2.517-3.954-2.666-6.219Z" transform="translate(-316.345 -198.049)" fill="#fff" fill-rule="evenodd"/>
              <path id="Path_2357" data-name="Path 2357" d="M290.031,253.61c-.83-6.051-4.372-6.413-5.034-11.052a3.732,3.732,0,0,1,.853-3.068c.239,2.214,1.465,4.14,2.695,6.072a16.178,16.178,0,0,1,2.576,5.389,7.839,7.839,0,0,1-1.09,2.66Z" transform="translate(-284.951 -237.934)" fill="#fff" fill-rule="evenodd"/>
            </g>
            <path id="Path_2358" data-name="Path 2358" d="M317.57,199.271a4.825,4.825,0,0,1,2.519-1.174,5.7,5.7,0,0,1,5.614,3,6.33,6.33,0,0,0-5.01-2.185,4.175,4.175,0,0,0-2.839,1.941,7.488,7.488,0,0,1-.284-1.585Z" transform="translate(-316.345 -198.049)" fill="#fff" fill-rule="evenodd"/>
            <path id="Path_2359" data-name="Path 2359" d="M290.031,253.61c-.83-6.051-4.372-6.413-5.034-11.052a3.732,3.732,0,0,1,.853-3.068,8.191,8.191,0,0,0,.382,1.712,3.179,3.179,0,0,0-.156,1.866C286.811,246.575,289.758,246.92,290.031,253.61Z" transform="translate(-284.951 -237.934)" fill="#fff" fill-rule="evenodd"/>
          </g>
          <g id="Group_3008" data-name="Group 3008" transform="translate(3.734)">
            <path id="Path_2360" data-name="Path 2360" d="M392.444,109.74a4.826,4.826,0,0,1-2.553,1.1,5.7,5.7,0,0,1-5.521-3.168,6.317,6.317,0,0,0,4.118,1.811c1.129.021,2.478-1.16,2.05-3.556-.453-2.537-2.782-4.317-2.8-7.036a20.187,20.187,0,0,0,2.227,4.555c1.2,2.017,2.4,4.028,2.48,6.3Z" transform="translate(-384.37 -95.176)" fill="#fff" fill-rule="evenodd"/>
            <path id="Path_2361" data-name="Path 2361" d="M478.249,0c.649,6.073,4.179,6.54,4.7,11.2a3.732,3.732,0,0,1-.944,3.041c-.173-2.22-1.341-4.182-2.513-6.149a16.185,16.185,0,0,1-2.415-5.463A7.847,7.847,0,0,1,478.249,0Z" transform="translate(-473.598 0)" fill="#fff" fill-rule="evenodd"/>
            <path id="Path_2362" data-name="Path 2362" d="M392.444,334.77a4.826,4.826,0,0,1-2.553,1.1,5.7,5.7,0,0,1-5.521-3.168,6.328,6.328,0,0,0,4.942,2.333,4.175,4.175,0,0,0,2.9-1.856,7.483,7.483,0,0,1,.237,1.593Z" transform="translate(-384.37 -320.206)" fill="#fff" fill-rule="evenodd"/>
            <path id="Path_2363" data-name="Path 2363" d="M508.2,0c.649,6.073,4.179,6.54,4.7,11.2a3.732,3.732,0,0,1-.944,3.041,8.177,8.177,0,0,0-.331-1.723,3.181,3.181,0,0,0,.211-1.86C511.21,7.128,508.273,6.7,508.2,0Z" transform="translate(-503.55 0)" fill="#fff" fill-rule="evenodd"/>
          </g>
          <g id="Group_3009" data-name="Group 3009" transform="translate(3.734)">
            <path id="Path_2364" data-name="Path 2364" d="M392.444,109.74a4.826,4.826,0,0,1-2.553,1.1,5.7,5.7,0,0,1-5.521-3.168,6.317,6.317,0,0,0,4.118,1.811c1.129.021,2.478-1.16,2.05-3.556-.453-2.537-2.782-4.317-2.8-7.036a20.187,20.187,0,0,0,2.227,4.555c1.2,2.017,2.4,4.028,2.48,6.3Z" transform="translate(-384.37 -95.176)" fill="#fff" fill-rule="evenodd"/>
            <path id="Path_2365" data-name="Path 2365" d="M478.249,0c.649,6.073,4.179,6.54,4.7,11.2a3.732,3.732,0,0,1-.944,3.041c-.173-2.22-1.341-4.182-2.513-6.149a16.185,16.185,0,0,1-2.415-5.463A7.847,7.847,0,0,1,478.249,0Z" transform="translate(-473.598 0)" fill="#fff" fill-rule="evenodd"/>
            <path id="Path_2366" data-name="Path 2366" d="M392.444,334.77a4.826,4.826,0,0,1-2.553,1.1,5.7,5.7,0,0,1-5.521-3.168,6.328,6.328,0,0,0,4.942,2.333,4.175,4.175,0,0,0,2.9-1.856,7.483,7.483,0,0,1,.237,1.593Z" transform="translate(-384.37 -320.206)" fill="#fff" fill-rule="evenodd"/>
            <path id="Path_2367" data-name="Path 2367" d="M508.2,0c.649,6.073,4.179,6.54,4.7,11.2a3.732,3.732,0,0,1-.944,3.041,8.177,8.177,0,0,0-.331-1.723,3.181,3.181,0,0,0,.211-1.86C511.21,7.128,508.273,6.7,508.2,0Z" transform="translate(-503.55 0)" fill="#fff" fill-rule="evenodd"/>
          </g>
        </g>
        <g id="Group_3015" data-name="Group 3015" transform="translate(23.567 4.786)">
          <g id="Group_3012" data-name="Group 3012">
            <g id="Group_3011" data-name="Group 3011">
              <path id="Path_2368" data-name="Path 2368" d="M726.99,128.47a4.827,4.827,0,0,1,2.508,1.2,5.7,5.7,0,0,1,1.255,6.241,6.32,6.32,0,0,0-1.351-4.291c-.728-.863-2.505-1.1-4.026.8-1.61,2.013-1.414,4.938-3.447,6.743a20.2,20.2,0,0,0,1.96-4.676c.726-2.233,1.449-4.458,3.1-6.014Z" transform="translate(-718.292 -128.431)" fill="#fff" fill-rule="evenodd"/>
              <path id="Path_2369" data-name="Path 2369" d="M625.04,139.652c4.141-4.49,2.166-7.453,5.323-10.916a3.732,3.732,0,0,1,2.91-1.294c-1.556,1.593-2.262,3.764-2.97,5.943a16.178,16.178,0,0,1-2.518,5.416,7.84,7.84,0,0,1-2.745.851Z" transform="translate(-625.04 -127.442)" fill="#fff" fill-rule="evenodd"/>
            </g>
            <path id="Path_2370" data-name="Path 2370" d="M829.963,128.48a4.826,4.826,0,0,1,2.508,1.2,5.7,5.7,0,0,1,1.255,6.241,6.329,6.329,0,0,0-1.5-5.255,4.174,4.174,0,0,0-3.3-.955A7.492,7.492,0,0,1,829.963,128.48Z" transform="translate(-821.264 -128.441)" fill="#fff" fill-rule="evenodd"/>
            <path id="Path_2371" data-name="Path 2371" d="M625.04,139.652c4.141-4.49,2.166-7.453,5.323-10.916a3.732,3.732,0,0,1,2.91-1.294,8.164,8.164,0,0,0-1.078,1.384,3.184,3.184,0,0,0-1.538,1.067c-2.238,2.8-.629,5.292-5.617,9.759Z" transform="translate(-625.04 -127.442)" fill="#fff" fill-rule="evenodd"/>
          </g>
          <g id="Group_3013" data-name="Group 3013" transform="translate(6.83 0.053)">
            <path id="Path_2372" data-name="Path 2372" d="M810.953,175.925a4.822,4.822,0,0,1-2.472-1.27,5.7,5.7,0,0,1-1.069-6.276,6.321,6.321,0,0,0,1.223,4.33c.7.885,2.472,1.173,4.047-.681,1.67-1.964,1.56-4.893,3.646-6.637a20.192,20.192,0,0,0-2.1,4.616c-.792,2.21-1.581,4.413-3.278,5.919Z" transform="translate(-806.906 -164.017)" fill="#fff" fill-rule="evenodd"/>
            <path id="Path_2373" data-name="Path 2373" d="M935.623,128.84c-4.272,4.365-2.386,7.385-5.645,10.753a3.732,3.732,0,0,1-2.947,1.207c1.6-1.546,2.372-3.7,3.145-5.852a16.18,16.18,0,0,1,2.677-5.339,7.838,7.838,0,0,1,2.77-.769Z" transform="translate(-922.519 -128.84)" fill="#fff" fill-rule="evenodd"/>
            <path id="Path_2374" data-name="Path 2374" d="M810.953,252.526a4.823,4.823,0,0,1-2.472-1.271,5.7,5.7,0,0,1-1.069-6.276,6.331,6.331,0,0,0,1.345,5.3,4.177,4.177,0,0,0,3.274,1.053,7.5,7.5,0,0,1-1.079,1.2Z" transform="translate(-806.906 -240.619)" fill="#fff" fill-rule="evenodd"/>
            <path id="Path_2375" data-name="Path 2375" d="M935.623,128.84c-4.272,4.365-2.386,7.385-5.645,10.753a3.732,3.732,0,0,1-2.947,1.207,8.179,8.179,0,0,0,1.119-1.352,3.183,3.183,0,0,0,1.569-1.02c2.32-2.73.786-5.271,5.9-9.587Z" transform="translate(-922.519 -128.84)" fill="#fff" fill-rule="evenodd"/>
          </g>
          <g id="Group_3014" data-name="Group 3014" transform="translate(6.83 0.053)">
            <path id="Path_2376" data-name="Path 2376" d="M810.953,175.925a4.822,4.822,0,0,1-2.472-1.27,5.7,5.7,0,0,1-1.069-6.276,6.321,6.321,0,0,0,1.223,4.33c.7.885,2.472,1.173,4.047-.681,1.67-1.964,1.56-4.893,3.646-6.637a20.192,20.192,0,0,0-2.1,4.616c-.792,2.21-1.581,4.413-3.278,5.919Z" transform="translate(-806.906 -164.017)" fill="#fff" fill-rule="evenodd"/>
            <path id="Path_2377" data-name="Path 2377" d="M935.623,128.84c-4.272,4.365-2.386,7.385-5.645,10.753a3.732,3.732,0,0,1-2.947,1.207c1.6-1.546,2.372-3.7,3.145-5.852a16.18,16.18,0,0,1,2.677-5.339,7.838,7.838,0,0,1,2.77-.769Z" transform="translate(-922.519 -128.84)" fill="#fff" fill-rule="evenodd"/>
            <path id="Path_2378" data-name="Path 2378" d="M810.953,252.526a4.823,4.823,0,0,1-2.472-1.271,5.7,5.7,0,0,1-1.069-6.276,6.331,6.331,0,0,0,1.345,5.3,4.177,4.177,0,0,0,3.274,1.053,7.5,7.5,0,0,1-1.079,1.2Z" transform="translate(-806.906 -240.619)" fill="#fff" fill-rule="evenodd"/>
            <path id="Path_2379" data-name="Path 2379" d="M935.623,128.84c-4.272,4.365-2.386,7.385-5.645,10.753a3.732,3.732,0,0,1-2.947,1.207,8.179,8.179,0,0,0,1.119-1.352,3.183,3.183,0,0,0,1.569-1.02c2.32-2.73.786-5.271,5.9-9.587Z" transform="translate(-922.519 -128.84)" fill="#fff" fill-rule="evenodd"/>
          </g>
        </g>
      </g>
    </g>
    <text id="umkmnusantara" transform="translate(322.81 68.182)" fill="#fff" font-size="27" font-family="OrchideaPro-Medium, Orchidea Pro" font-weight="500"><tspan x="-130.437" y="0">UMKMNUSANTARA</tspan></text>
  </g>
</svg>
