<svg xmlns="http://www.w3.org/2000/svg" width="26.248" height="22.05" viewBox="0 0 26.248 22.05">
  <path id="twitter_icn" d="M852.248,253.743a10.424,10.424,0,0,1-3.086.877,5.548,5.548,0,0,0,2.366-3.081,10.582,10.582,0,0,1-3.418,1.352,5.3,5.3,0,0,0-3.939-1.755,5.369,5.369,0,0,0-3.821,1.644,5.586,5.586,0,0,0-1.564,3.921,5.888,5.888,0,0,0,.139,1.269,15.126,15.126,0,0,1-11.1-5.814,5.683,5.683,0,0,0,1.667,7.429,5.233,5.233,0,0,1-2.44-.7v.071a5.526,5.526,0,0,0,4.324,5.456,5.232,5.232,0,0,1-2.432.1,5.42,5.42,0,0,0,5.029,3.864,10.586,10.586,0,0,1-6.686,2.381,1.674,1.674,0,0,1-1.286-.079,14.847,14.847,0,0,0,8.252,2.5,15.179,15.179,0,0,0,10.905-4.648,15.816,15.816,0,0,0,4.419-11.184c0-.242,0-.482-.017-.722A11.123,11.123,0,0,0,852.248,253.743Z" transform="translate(-826 -251.137)" fill="#fff" fill-rule="evenodd"/>
</svg>
